<svg width="1440" height="1024" viewBox="0 0 1440 1024" fill="none" xmlns="http://www.w3.org/2000/svg">
<rect width="1440" height="1024" fill="#E5E5E5"/>
<g clip-path="url(#clip0_0_1)">
<rect width="1440" height="1024" fill="#F5F7FB"/>
<path fill-rule="evenodd" clip-rule="evenodd" d="M-68.2748 713.135C57.2435 703.476 197.178 668.008 288.076 756.954C388.686 855.403 418.017 1014.85 379.979 1151.76C343.896 1281.64 231.956 1377.01 105.195 1415.21C-1.51435 1447.38 -98.1517 1372.42 -199.947 1326.55C-309.512 1277.19 -455.562 1262.55 -492.145 1146.08C-530.295 1024.61 -451.414 897.261 -363.11 807.067C-286.519 728.837 -176.279 721.447 -68.2748 713.135Z" fill="#DEEBF8"/>
<path fill-rule="evenodd" clip-rule="evenodd" d="M1140.08 241.457C1080.72 178.837 999.544 120.945 1014.78 29.2935C1031.65 -72.1492 1115.92 -164.823 1215.23 -210.509C1309.43 -253.848 1415.03 -239.871 1492.25 -190.361C1557.25 -148.684 1552.95 -60.7066 1568.5 15.9945C1585.24 98.5494 1638.61 183.899 1583.51 259.723C1526.06 338.792 1415.14 357.972 1322.76 354.166C1242.64 350.866 1191.16 295.34 1140.08 241.457Z" fill="#FFFAD1"/>
</g>
<defs>
<clipPath id="clip0_0_1">
<rect width="1440" height="1024" fill="white"/>
</clipPath>
</defs>
</svg>
